<svg version="1.1" xmlns="http://www.w3.org/2000/svg" viewBox="0 0 1382.8304195951682 783.313911797183" width="2765.6608391903364" height="1566.627823594366"><!-- svg-source:excalidraw --><metadata><!-- payload-type:application/vnd.excalidraw+json --><!-- payload-version:2 --><!-- payload-start -->eyJ2ZXJzaW9uIjoiMSIsImVuY29kaW5nIjoiYnN0cmluZyIsImNvbXByZXNzZWQiOnRydWUsImVuY29kZWQiOiJ4nO1d21LbWFx1MDAxNn3PV7jox1x0yrlf8lx1MDAwNiRcZiSkIYRcXJuulGzLtlx1MDAwNllyZFx1MDAxOVx1MDAwM12p6o+Yf5n3+ZT5ktlHXHUwMDE4S7KPQDKO21x1MDAxZKC7qFiypCOdtda+nL3FXHUwMDFmT1x1MDAxYY2N5HLgbTxvbHhcdTAwMTctN/DbsTveeGq2n3vx0I9C2EXSz8NoXHUwMDE0t9Jv9pJk8PzZsyCCXHUwMDAzetEweU5cdTAwMTHG11x1MDAwN3mB1/fCZFxiX/tccj43XHUwMDFhf6S/YY/fNocmflx1MDAxMnjpV9ONN9dOvIsk23pcdTAwMDGbOMVcdTAwMGVDSFx1MDAxMMUwJVxi8eneS9irXHUwMDFjRIikXGYxSbmGf0z3jv120oNvMCRcdTAwMWPNsSRcdTAwMThrXGZcdTAwMWZIdoKe53d7XHR8h1x1MDAxMifb6obdwIxcdTAwMDVNt1xmkzg683aiIIrNXHUwMDE4f8Ge+S9cdTAwMWJm022ddeNoXHUwMDE0tqffSWI3XHUwMDFjXHUwMDBl3Fx1MDAxOFx1MDAxZUH2vY5cdTAwMWZcdTAwMDTvksv07PBcdTAwMTThXHUwMDE5b8xcXOPjZNBkZnvZUXDRbi/0huYx4+nWaOC2/MQ8XHUwMDFljLK7MCNcdTAwMWPst9NcdTAwMTn5PVx1MDAxYlPs9r19MyXhKFxippv9sO2Zp7/hosLVwvbkaoVvXHUwMDBmPc+cXHUwMDAxUyoopkxNd2TQoXJ2469RmKJcYnOthaBKZEP1hy9cdTAwMDA/SXrSjlx1MDAxYlxmvexRmyG8zLBVXHUwMDE4xmjQdq9cdTAwMGbCUmGFXHUwMDE0kppcdTAwMTA63Vx1MDAxZvjh2ewxgN0zy3VSXHUwMDFjwu23OpuDOLq4ZCnGg6Df+N+f/25sxa2en3itZFx1MDAxNOdg0InC5J1/Ze6JiMLWXbfvXHUwMDA3Zj544Vx1MDAwMluB3zXPZiPwOjmYwPNJfLjadHdcdTAwMTJccrK9LTif64dePD9pUex3/dBcck5cdTAwMTZcdTAwMTi8O0qiY294PfwkXHUwMDFlefmn5u3dMFx1MDAwNTuEpzu+P7WyetDqfL2KQlx1MDAwYrNjuOI1tVxu9Fx1MDAxNtShVCOBXHUwMDE5U1RJmmEnfV7Y4YhprJFcdTAwMTJYXG6s5+iNaVx1MDAwZTdTQjOVbazAZy1xi9zK519cXN5Wnc5fyWWagWdBKuNcdTAwMWFUXHUwMDA2nVx1MDAwNFGlguVhOeEyk3p265TMiDIpOUeLkPm3yY5cZlY5aI32w4PPXHUwMDFmXn5FL9+0XHUwMDA3g8HHT6/fflx1MDAxM9NcdTAwMWIqQM2N42i8Md3zffKv7ElcdTAwMTWFQnIqiJSE5SF/h1DcwoHAXHUwMDFkXHUwMDAwYWuyXHUwMDAwXHUwMDAxzpVgWHFKXHUwMDAw7UxcdTAwMTRpXHUwMDAwPFx1MDAwMG1cdTAwMTWMK8Y4I6pcIlxyXGKpQ1x1MDAwM9LRXHUwMDFlY7fToEk6pNn8e9OA1KBcdTAwMDGXSkumrTRcdTAwMDCfooxcdTAwMDZKUK1cYlx1MDAxMmpcdTAwMTFcdTAwMTbcglMgpORyOTh1u1x1MDAwNefkXHUwMDBlhOZcdTAwMDQ1dSxyyLrBIKFcdTAwMTZcYmK8bCXupD9/c6+KVscgwUhxkid9zqsq1WFcdEZcdTAwMTUxOHR5Omz10XOA+kJYwFx1MDAxMFx1MDAwNyd893PwdbdcdTAwMWL1O99ULVx1MDAxOaaa5lx1MDAxZPx7wVx1MDAxYtDt+ovCm9rgzW3wrqWwXHUwMDBmXHUwMDA23qyGxEJUx1x1MDAxOcNYWPBdKrBcdTAwMDBcdTAwMTiNqFx1MDAxNIqtXHUwMDBl3zuXYn/z/ORk1Fx1MDAxZVx1MDAxZFx1MDAwZsXxwbdP4rhVXHUwMDFm33XikVvw3Vx1MDAxYjVN+F1cdTAwMTnheZfsckaYbyCeh31cdTAwMDZxWlx1MDAwN+K6RUWT31x1MDAwZXHPa3pcdTAwMWT3b1x1MDAwZXFeXHUwMDFk4pxxqVx1MDAwNc1ds1xuwlx1MDAxNWBcdTAwMDaZ1MbqXHUwMDEw/lwi+XZJzva+XFztiat4++KLd/HibT1HeplcYo+9rlx1MDAwZtN8uTDEKa1cbnH0XGJxXHUwMDBixEV1iCtE4X9BbVwizssgLijmXFxjLlaH8H9+aF/1Pm17h1Hz4qui71+NX45xXHUwMDBl4U/tp11JXGJcboGGWFx1MDAwZXPANnTjQasycVx1MDAwMCvM0ZoyXHUwMDEzgTKEdDH8JII6WFxiLChcdTAwMDSfmlx1MDAxMCXnaEVs4aeqk1R9MKySNXwjhVx1MDAxNWFMM5vlwLg8pYqJXHUwMDE0MFOr41XPTZqHYz9cdTAwMWNdvdl79dXbis77vYP14Fx1MDAxNSVcZpHl8KpcdTAwMTn77W71rE7edl+memeJKrTVXHUwMDFl1WFOlbzNT1x1MDAxMVWoXHUwMDFh9ogxhZhWNuLM5XJuaENcdTAwMTXnnCG6SntcdTAwMTSR5PV+d9zs7+9cdTAwMWRcdTAwMWVedDe3O68/1sM34mhZdmM0gDn23H71sJnfjXCKXHUwMDFmXHUwMDExfjOmu1x1MDAxMK5r2Fx1MDAwNoRcdTAwMTnWUlwiW16oNKqAsJlcdTAwMGKt9VxuIU7Qfn9wXHUwMDFjdsn+20H08dJ/vUs7zb8sqMgvglx1MDAxNI1K0SPS0lx1MDAwMc+UYC6RVpiSXHUwMDAyzFx0JeAuIUm4lkpcdTAwMTBG5kHvKKQwIVJLwlx1MDAwMOzMsuostYOw4kaoiOS5/MdSXHUwMDEyST/PXG70Vp18PVFUMzyH/41bcqVcdTAwMDRcdTAwMTGK4Vx1MDAxN1thLundqzcj7/XuXrDbXHUwMDBlOy+Sg89Hn45H9XRfKqR1XHJSTDdcdTAwMGZcIn927L/lRoiyWojJx+mn359aj6BcdTAwMGUtXHUwMDAxu/mRyuF5mGdnm7vJwFx1MDAxZCY7Ub/vJ3CrR2aYc/OcuHGyXHLY8MPu7D4vbJfsSY/aMizvee5cdTAwMWPS4Lj8vlk58IJmNK6mLaSStlAqXHUwMDFkoqmSmEPAxXPKNkk9O1RzJJSCcFrJeW3BXHUwMDEyO5hRLVx1MDAxOIHHXHJcIpRZgExbpIORUulSXCLiXFxm0H5cdTAwMTSXgrhs18lUg0dJuJxf9rvN4lx1MDAxMoVcdTAwMDXXbLGlwMXEZeuiOzrqjjdPum7Q9MdnYzpcdTAwMWX+YIu7oLhsVlBcdTAwMTcskSOscE/PIIUjXG5I/4n1hVbSXHUwMDE3IYpOOWHz9Vx1MDAwMlx1MDAxNpe8lkZUyNb8PFx1MDAxYbFTXSO0UIgrpmz1XHUwMDAy5Vx1MDAxMiE4QWylmf44fv2vr1x1MDAxN0eH0dvBXvQr1jvb8Um4Jlx1MDAxMlHT+yh8X9L8XHUwMDAxP51cdTAwMDDwalx1MDAwMkCZXHUwMDAzkFx1MDAxMkRQLITQXHUwMDE5LdJcdTAwMTidK9BTRGH6pGJCZHuzklniMEwlk5JcIoJlNstZZZFcdTAwMDZRplx1MDAxMFx1MDAxZWFMXHUwMDE10zkgLCWa/1Ha0XaHPW+14vGyunhcYiWwhmmzRvSqdFx1MDAxOVx1MDAwNVNsao24WqF+9KVs4d7hi5dft/vjk6sjpHqdNzXzVoKqOnnZXHUwMDFm6GIwhCHat1x1MDAwMD49gcE6zmN9NVx1MDAwMpPNx00x/X5Jja2BYdRcdTAwMWGZR7JcdKFcdTAwMDFcdTAwMDVcdTAwMTQhaZxVuJ/MXHUwMDEyXHUwMDE5XGK7XHUwMDAzM1x1MDAwMTcu0vfioFagX6Kiflx1MDAxNauAhcrX508z5ygzslNdWnK948/jw+xWlyFcdTAwMDZcdTAwMDFcdTAwMGJELNa13PJyXHUwMDA1hlx1MDAwNMBNrDKJMv78Zod/OFx1MDAxYV69b4pwRyuOvYP1jHPQXVxuRFx1MDAxMC094mfzYux1gnPCMN9cboQxXHUwMDAzv1x1MDAwNNxcdTAwMTZCXHT4NVxiXHUwMDE3l6lBwC0ygVx1MDAwNUiiXHUwMDA0cHBcbs6O1NmiaVx1MDAxNvnUav55SNmR/Vx1MDAxYUVOijBcdPbRXHUwMDE2+cwpSZZ6lWBUMV+oTPXW3lx1MDAxZqm1rlcqnVx1MDAwMXDSPrOz29gyNdKn4Wno+pv9qO1cdTAwMDXDRnPCnewh5tp+UGHrXW0/LTi5XHUwMDE3b+RcdTAwMWZOsfGn77fb+SW3Yu/PbFx1MDAwNfds+0/F8S+n88deXHUwMDFjWYXUhDhKXHUwMDAzqblQlGsqi1xyfrZcdTAwMWEuLJhDsIYwXHUwMDFiQlx1MDAxMIVtXHUwMDFkffUqulx1MDAxZVx1MDAxNKdf1VljXHUwMDE0YFwiObZ29Fx1MDAxMTy7MWM1SC1EnnyRXHUwMDAylDs6+jCMXGLnXHUwMDExWpfVW/uNd1587re84WmYXHUwMDE2iV83yTnDy6HjOKfhdTvrZlx1MDAxNFx1MDAwNG7f3TyF56ZcYvw8i1x1MDAwNsWK8r+O9zOl7bO8r3mHZfe3XHUwMDFjXbCXlFbQXHUwMDA1XHUwMDBluoBcYsJcdTAwMTgjRXXerpTbelwiuaO5llx1MDAxMPZQXHUwMDAwoVVcdTAwMTlqXHUwMDE5+1x1MDAwN5XmfF0jU8GpQlx1MDAxYVsrmsvzXHUwMDE0Slx0XHUwMDEwWilcdTAwMTZcdFx1MDAxMe6QXHUwMDA18Cf5vVx1MDAxYX33Rs20O3bv5OSocVxiVFx1MDAwMFx1MDAxNnXcllx1MDAwN2y5Jsazc/ys1XOTZ62oP4Axw41cdTAwMDG95lpsXHUwMDFkdzAwLFtcdTAwMDedmGtcdTAwMTGYVYpcdTAwMWZ308tcdTAwMTFcdTAwMGZ7tW5cdTAwMTXxoNRcdTAwMTRoYEwoYkLN+lx1MDAxNNxcIlx1MDAxZFx1MDAxY+TG1NNw041sXHUwMDEzXHUwMDBlXsejeFDCcVCnQIOa1Fx1MDAxZpK25EJ5N1x1MDAxYrjyXGYzvVBX8S3KsUjL2ZxybKdFoceTZoXTcOhcdTAwMWJ0NK5rRVx1MDAxYv/9T8NcdTAwMGYhsIZcdTAwMWJcdTAwMTnCRddBXHUwMDE25vsqZnVhwVtaXHUwMDBl6e2lxFVcIlx0cFx1MDAwZVx1MDAxZFx1MDAwNVx1MDAwMDNtj4pcIlF0XHUwMDE5iFB3VrFT4Vx1MDAxMFx0zoYof1fIo/9QJlx1MDAwM29qyIBZxmdcIt+fXqmwXHUwMDFkoj5RXFxeXZZcdTAwMGWAu5l3TO7hQXSPj3ZcdTAwMWEwnW3v6jxcdTAwMWGBuTTW9Vx1MDAxOWnAM0m8xnPGqMWCbpp+jfVxXHUwMDFiit0jZW7Dku50Sb6CtZK6gmxQqVx1MDAxZK7AJCGmuUCcZehLXHUwMDE3XHUwMDFmmMVZwMgxQVx0XHUwMDA3i6RMJ2pmzVx1MDAxNtOJXHUwMDA3tVx1MDAxNPFrXHKdICpdJqxcdTAwMTdnUC1cdTAwMTDmbKE6/ttVXCIttr9XUvHatDbartePwtNcdTAwMTCYko7gmkutwE/zdWeeN3BcdTAwMDP/3Gvw4Toowmzfi91fWOimlkN+e415XHUwMDA18ivFXHUwMDFjwFx1MDAxOFJEXCJcIqiowH2GXHUwMDFkXHUwMDA23Fx1MDAwNy9CM0lcdTAwMDR/5H5ccu5cdTAwMWbWWIYkXHUwMDA0XHUwMDEzzKzcL49cdTAwMTRMd4NcdTAwMDLnbvlcdTAwMWXC/SOF95P2msbBwZvT8DBNvzWeY8wog0BcdTAwMWJ4XHUwMDEz31x1MDAwNOHuwHeuI3BcdTAwMDdcIu91kID51qBZXHUwMDExuP/dLUdcdTAwMGLspfVV4lx1MDAwNyFcdTAwMWRcIjTF4JZSwVx1MDAxNC9mXHLyLa43YiC4g7TWRCukuUS5zHRWKfW4uFiiXHUwMDA1R9W1gCBJlCmStL6HaU4hplxyfVx1MDAxMkmz9LvkdYi0+0LwxVxuXHUwMDA3bsRgndZcdTAwMTFxOat/0HKhvUS9irfOpEMhXHUwMDA21FghzpEmsyTVXHUwMDBlhcid68nvbI6mq4dcdTAwMWM52pBcdTAwMTbQUXT3XHUwMDFmOXsnZ9/W4ixcdTAwMTPghIt6XHUwMDA2XFxrjFxmt5bvvN/fgKd58n80tj2YyngtmEvKmVsy2OXw114/XoG/XHUwMDAyK0dcdTAwMDJcdTAwMTCpJFx1MDAxNDPGi81PRNoq/Uz5n1x1MDAwNMJyTuFQTS39TrVcdTAwMTj7oLJyx9VcdTAwMTlcdTAwMGLUI1TY3zZRSlihhVx1MDAxMvnu1fWha9uHKUxavbVgKi1n6vw4l0NSe5F2XHUwMDA1kkqBXHUwMDFjSjTYRphcdTAwMGLFZt7Ji5CjXGIjnFx1MDAxOfNL8i+LyUwsdlx1MDAxMNdcdTAwMWHsK+KK35+xXHUwMDBmKkY+qc5YYKuk1P5cdTAwMGWA0tdcXGBcZtNKXHUwMDEwX/Y6/FLyY4Xc0VpcdTAwMTCXl1x1MDAxM7dksMthr726uYqJlchhXHUwMDEyTCyWVJn6uFx1MDAwMn1h7zxfqU75XG6ONaEsX4L3SNc76fq+RjpcdTAwMWIzLYAqota7XFzBjcaM5F9qsD4mNlc5slx1MDAxNmRcdTAwMTXlZLVcdTAwMGV1OVS9/Vx1MDAwNVa3tbooxlx1MDAxY5NtwlxcKY4knnlcdTAwMTeAMFx1MDAxN5ZcdTAwMTJcdTAwMTSbQ7yrLe9cdTAwMDJgxJFpVzrwXHUwMDE2XHSGLNEsXHUwMDEzXHUwMDBlXHUwMDA2p46C4UZE5V9F8ugqXHUwMDE3mPyhRlx1MDAwMZz5Y1x1MDAwNIJZiSzl3NasS4ZzzDnK0eKHd8m8PX+1f7B/0uIqePclfuuf7fKzqF6rntKS/JBWvfxw7+yRKce6+dmcg3l2vrlbrN1BU9aMN1dL08h68cBcbiPMqcGJMn9LIctcdTAwMGU3blrxSJH9hKvJN7LWvEo9gbNL9sVRQNzMJdHE1F5ykTWSTodcdTAwMDExuamg1EhzriQjhMxccmNFvUF2sFZwepSgjsaKaIBcdTAwMDZcIpxcdTAwMTdbgyjhjlx1MDAxMFxiYlvCTUu0pU1cYlFcdTAwMDemSoM9xERofu9U/oNSzo/VlVNTSrCQ3FZcdTAwMDCIy4VTKUVcdTAwMDRcIlx1MDAwYjlBt/1FXHUwMDA1oYBcdTAwMTX3iliuXHUwMDE3x8dRfLZcdTAwMGVcdTAwMWXQXHUwMDFkrshcXHrfMvjaPtGTibRuuIPBu1x1MDAwNJ7vVKk2zn1vvF3+tr4nXHUwMDEzXHUwMDFkMKj3zFT98f3J9/9cdTAwMDNcdTAwMTFoL7IifQ==<!-- payload-end --></metadata><defs><style class="style-fonts">
      @font-face { font-family: Excalifont; src: url(https://esm.sh/@excalidraw/excalidraw@0.18.0/dist/prod/fonts/Excalifont/Excalifont-Regular-a88b72a24fb54c9f94e3b5fdaa7481c9.woff2); }</style></defs><g transform="translate(480.89198655998143 10) rotate(0 203.47586059570312 16.25)"><text x="0" y="22.906" font-family="Excalifont, Xiaolai, Segoe UI Emoji" font-size="26px" fill="#1e1e1e" text-anchor="start" style="white-space: pre;" direction="ltr" dominant-baseline="alphabetic">cf-proxy4localllm — Architecture</text></g><g stroke-opacity="0.35" fill-opacity="0.35" stroke-linecap="round" transform="translate(12.830419595168337 53.48218503881645) rotate(0 680 240)"><path d="M1.16 -1.31 L1361.4 0.14 L1358.15 479.26 L0.71 479.08" stroke="none" stroke-width="0" fill="#a5d8ff"></path><path d="M0 0 C471.6 -0.5, 944.54 -0.47, 1360 0 M0 0 C400.42 0.21, 800.77 -0.4, 1360 0 M1360 0 C1361.56 134.63, 1362.09 268.92, 1360 480 M1360 0 C1359.39 184.54, 1358.72 369.5, 1360 480 M1360 480 C973.08 482.41, 587.78 481.97, 0 480 M1360 480 C868.08 479.79, 375.3 480.12, 0 480 M0 480 C-2.03 314.54, -1.79 148.56, 0 0 M0 480 C0.45 291.3, 0.67 102.4, 0 0" stroke="#1971c2" stroke-width="2" fill="none"></path></g><g stroke-opacity="0.35" fill-opacity="0.35" stroke-linecap="round" transform="translate(10 553.313911797183) rotate(0 680 110)"><path d="M-1.31 1.4 L1360.14 -1.85 L1359.26 220.71 L-0.92 220.88" stroke="none" stroke-width="0" fill="#b2f2bb"></path><path d="M0 0 C298.51 3.23, 597.24 2.63, 1360 0 M0 0 C291.72 0.39, 582.47 0.45, 1360 0 M1360 0 C1361.23 82.54, 1361.73 163.96, 1360 220 M1360 0 C1358.86 55.24, 1359.06 111.65, 1360 220 M1360 220 C909.93 214.92, 459.35 215.32, 0 220 M1360 220 C1027.18 224.48, 694.84 224.84, 0 220 M0 220 C0.53 139.59, -0.13 62.89, 0 0 M0 220 C-1.84 157.63, -2.32 94.17, 0 0" stroke="#2f9e44" stroke-width="2" fill="none"></path></g><g stroke-linecap="round" transform="translate(29.491358146780954 121.97726595264027) rotate(0 115 55)"><path d="M1.4 0.14 L228.15 -0.74 L230.71 109.08 L0.88 110.8" stroke="none" stroke-width="0" fill="#ffffff"></path><path d="M0 0 C71.44 0.13, 140.42 -0.97, 230 0 M0 0 C69.36 -2.31, 139.16 -1.2, 230 0 M230 0 C231.65 35.33, 231.86 65.93, 230 110 M230 0 C230.14 29.58, 230.73 60.49, 230 110 M230 110 C151.33 109.41, 73.32 109.25, 0 110 M230 110 C160.85 109.6, 92.83 109.75, 0 110 M0 110 C-0.24 77.53, 2.83 45.46, 0 0 M0 110 C0.46 66.12, 0.13 22.84, 0 0" stroke="#1971c2" stroke-width="2" fill="none"></path></g><g transform="translate(63.90143047344111 139.47726595264027) rotate(0 80.58992767333984 37.5)"><text x="80.58992767333984" y="17.619999999999997" font-family="Excalifont, Xiaolai, Segoe UI Emoji" font-size="20px" fill="#1971c2" text-anchor="middle" style="white-space: pre;" direction="ltr" dominant-baseline="alphabetic">CF Agent</text><text x="80.58992767333984" y="42.62" font-family="Excalifont, Xiaolai, Segoe UI Emoji" font-size="20px" fill="#1971c2" text-anchor="middle" style="white-space: pre;" direction="ltr" dominant-baseline="alphabetic"></text><text x="80.58992767333984" y="67.62" font-family="Excalifont, Xiaolai, Segoe UI Emoji" font-size="20px" fill="#1971c2" text-anchor="middle" style="white-space: pre;" direction="ltr" dominant-baseline="alphabetic">ai-models binding</text></g><g stroke-linecap="round" transform="translate(29.491358146780954 321.97726595264027) rotate(0 125 60)"><path d="M0.14 -1.85 L249.26 0.71 L249.08 120.88 L0.8 121.68" stroke="none" stroke-width="0" fill="#ffffff"></path><path d="M0 0 C62.36 -1.51, 124.01 -1.37, 250 0 M0 0 C72.04 0.57, 145.64 0.77, 250 0 M250 0 C252.71 39.41, 249.88 74.88, 250 120 M250 0 C248.61 45.53, 249.42 91.81, 250 120 M250 120 C198.04 121.25, 146.67 120.22, 0 120 M250 120 C153.95 119.47, 57.69 119.03, 0 120 M0 120 C-0.59 96.43, -0.52 71, 0 0 M0 120 C-0.53 79.6, -0.56 38.75, 0 0" stroke="#1971c2" stroke-width="2" fill="none"></path></g><g transform="translate(72.3814338303747 331.97726595264027) rotate(0 82.10992431640625 50)"><text x="82.10992431640625" y="17.619999999999997" font-family="Excalifont, Xiaolai, Segoe UI Emoji" font-size="20px" fill="#1971c2" text-anchor="middle" style="white-space: pre;" direction="ltr" dominant-baseline="alphabetic">AI Services</text><text x="82.10992431640625" y="42.62" font-family="Excalifont, Xiaolai, Segoe UI Emoji" font-size="20px" fill="#1971c2" text-anchor="middle" style="white-space: pre;" direction="ltr" dominant-baseline="alphabetic">genai-proxy.sys...</text><text x="82.10992431640625" y="67.62" font-family="Excalifont, Xiaolai, Segoe UI Emoji" font-size="20px" fill="#1971c2" text-anchor="middle" style="white-space: pre;" direction="ltr" dominant-baseline="alphabetic">/local-ollama-</text><text x="82.10992431640625" y="92.62" font-family="Excalifont, Xiaolai, Segoe UI Emoji" font-size="20px" fill="#1971c2" text-anchor="middle" style="white-space: pre;" direction="ltr" dominant-baseline="alphabetic">de82222/openai</text></g><g stroke-linecap="round" transform="translate(449.49135814678095 111.97726595264027) rotate(0 160 65)"><path d="M-1.85 -0.74 L320.71 -0.92 L320.88 130.8 L1.68 129" stroke="none" stroke-width="0" fill="#eebefa"></path><path d="M0 0 C87.88 -0.72, 175.95 0.34, 320 0 M0 0 C125.08 1.86, 250.48 1.47, 320 0 M320 0 C322.68 46.74, 320.44 96.94, 320 130 M320 0 C318.86 29.72, 319.45 57.87, 320 130 M320 130 C221.73 128.2, 121.71 130.17, 0 130 M320 130 C236.83 131.39, 152.98 130.35, 0 130 M0 130 C2.65 87.87, 2.65 47.09, 0 0 M0 130 C-0.62 91.34, -0.5 54.07, 0 0" stroke="#9c36b5" stroke-width="2" fill="none"></path></g><g transform="translate(471.51146923076533 139.47726595264027) rotate(0 137.97988891601562 37.5)"><text x="137.97988891601562" y="17.619999999999997" font-family="Excalifont, Xiaolai, Segoe UI Emoji" font-size="20px" fill="#9c36b5" text-anchor="middle" style="white-space: pre;" direction="ltr" dominant-baseline="alphabetic">Hub — HTTP OpenAI face</text><text x="137.97988891601562" y="42.62" font-family="Excalifont, Xiaolai, Segoe UI Emoji" font-size="20px" fill="#9c36b5" text-anchor="middle" style="white-space: pre;" direction="ltr" dominant-baseline="alphabetic">/openai/v1/chat/completions</text><text x="137.97988891601562" y="67.62" font-family="Excalifont, Xiaolai, Segoe UI Emoji" font-size="20px" fill="#9c36b5" text-anchor="middle" style="white-space: pre;" direction="ltr" dominant-baseline="alphabetic">cf-proxy4localllm.apps...</text></g><g stroke-linecap="round" transform="translate(449.49135814678095 331.97726595264027) rotate(0 160 50)"><path d="M-0.74 0.71 L319.08 0.88 L320.8 101.68 L-1 98.09" stroke="none" stroke-width="0" fill="#eebefa"></path><path d="M0 0 C116.99 0.16, 236.24 1.4, 320 0 M0 0 C84.94 0.49, 169 0.93, 320 0 M320 0 C320.03 36.96, 322.57 73.51, 320 100 M320 0 C319.8 22.9, 318.54 45.04, 320 100 M320 100 C219.51 101.37, 121.77 100.84, 0 100 M320 100 C238.56 100.96, 155.66 101.16, 0 100 M0 100 C-0.09 77.93, 0.99 51.98, 0 0 M0 100 C-0.03 61.49, 0.69 20.65, 0 0" stroke="#9c36b5" stroke-width="2" fill="none"></path></g><g transform="translate(483.48147045146845 356.97726595264027) rotate(0 126.0098876953125 25)"><text x="126.0098876953125" y="17.619999999999997" font-family="Excalifont, Xiaolai, Segoe UI Emoji" font-size="20px" fill="#9c36b5" text-anchor="middle" style="white-space: pre;" direction="ltr" dominant-baseline="alphabetic">BridgeRegistry</text><text x="126.0098876953125" y="42.62" font-family="Excalifont, Xiaolai, Segoe UI Emoji" font-size="20px" fill="#9c36b5" text-anchor="middle" style="white-space: pre;" direction="ltr" dominant-baseline="alphabetic">single bridge · instances: 1</text></g><g stroke-linecap="round" transform="translate(954.4848223307905 265.14342940756313) rotate(0 130 42.5)"><path d="M0.71 -0.92 L260.88 0.8 L261.68 84 L-1.91 85.92" stroke="none" stroke-width="0" fill="#eebefa"></path><path d="M0 0 C72.5 1.63, 146.37 1.21, 260 0 M0 0 C62.12 -1.33, 124.71 -0.84, 260 0 M260 0 C260.19 35.22, 259.25 65.7, 260 85 M260 0 C260.29 20.23, 259.96 42.49, 260 85 M260 85 C193.88 85.22, 127.17 83.14, 0 85 M260 85 C170.76 85.56, 81.82 85.78, 0 85 M0 85 C1.07 61.72, -0.94 38.62, 0 0 M0 85 C0.21 64.86, -1.42 44.21, 0 0" stroke="#9c36b5" stroke-width="2" fill="none"></path></g><g transform="translate(966.3448992350874 270.14342940756313) rotate(0 118.13992309570312 37.5)"><text x="118.13992309570312" y="17.619999999999997" font-family="Excalifont, Xiaolai, Segoe UI Emoji" font-size="20px" fill="#9c36b5" text-anchor="middle" style="white-space: pre;" direction="ltr" dominant-baseline="alphabetic">Hub — gRPC rendezvous</text><text x="118.13992309570312" y="42.62" font-family="Excalifont, Xiaolai, Segoe UI Emoji" font-size="20px" fill="#9c36b5" text-anchor="middle" style="white-space: pre;" direction="ltr" dominant-baseline="alphabetic">HTTP/2 route :443</text><text x="118.13992309570312" y="67.62" font-family="Excalifont, Xiaolai, Segoe UI Emoji" font-size="20px" fill="#9c36b5" text-anchor="middle" style="white-space: pre;" direction="ltr" dominant-baseline="alphabetic">cf-proxy4localllm-grpc...</text></g><g stroke-linecap="round" transform="translate(289.49135814678095 631.9772659526402) rotate(0 145 52.5)"><path d="M-0.92 0.88 L290.8 1.68 L289 103.09 L0.92 106.85" stroke="none" stroke-width="0" fill="#ffffff"></path><path d="M0 0 C85.24 1.31, 170.24 -0.98, 290 0 M0 0 C81.09 0.42, 162.54 0.63, 290 0 M290 0 C291.13 38.96, 288.01 79.86, 290 105 M290 0 C289.37 29.91, 290.44 59.17, 290 105 M290 105 C186.32 104.39, 79.4 105.62, 0 105 M290 105 C189.26 105, 89.38 104.71, 0 105 M0 105 C0.96 63.58, 1.98 21.22, 0 0 M0 105 C0.76 66.47, 0.32 30.14, 0 0" stroke="#2f9e44" stroke-width="2" fill="none"></path></g><g transform="translate(329.0714286423864 646.9772659526402) rotate(0 105.41992950439453 37.5)"><text x="105.41992950439453" y="17.619999999999997" font-family="Excalifont, Xiaolai, Segoe UI Emoji" font-size="20px" fill="#2f9e44" text-anchor="middle" style="white-space: pre;" direction="ltr" dominant-baseline="alphabetic">Bridge daemon</text><text x="105.41992950439453" y="42.62" font-family="Excalifont, Xiaolai, Segoe UI Emoji" font-size="20px" fill="#2f9e44" text-anchor="middle" style="white-space: pre;" direction="ltr" dominant-baseline="alphabetic">outbound gRPC client</text><text x="105.41992950439453" y="67.62" font-family="Excalifont, Xiaolai, Segoe UI Emoji" font-size="20px" fill="#2f9e44" text-anchor="middle" style="white-space: pre;" direction="ltr" dominant-baseline="alphabetic">keepalive 5s</text></g><g stroke-linecap="round" transform="translate(799.491358146781 631.9772659526402) rotate(0 155 52.5)"><path d="M0.88 0.8 L311.68 -1 L308.09 105.92 L1.85 106.71" stroke="none" stroke-width="0" fill="#ffffff"></path><path d="M0 0 C67.72 -0.3, 131.95 -0.08, 310 0 M0 0 C114.96 0.22, 229.64 0.29, 310 0 M310 0 C308.25 25.17, 308.71 53.03, 310 105 M310 0 C310.55 34.87, 309.99 70.13, 310 105 M310 105 C233.61 106.27, 158.96 107.55, 0 105 M310 105 C198.33 102.61, 86.23 103.71, 0 105 M0 105 C-1.13 76.69, -2.22 45.87, 0 0 M0 105 C-1.66 80.01, -0.38 55.31, 0 0" stroke="#2f9e44" stroke-width="2" fill="none"></path></g><g transform="translate(833.7714408494177 646.9772659526402) rotate(0 120.71991729736328 37.5)"><text x="120.71991729736328" y="17.619999999999997" font-family="Excalifont, Xiaolai, Segoe UI Emoji" font-size="20px" fill="#2f9e44" text-anchor="middle" style="white-space: pre;" direction="ltr" dominant-baseline="alphabetic">Upstream LLM</text><text x="120.71991729736328" y="42.62" font-family="Excalifont, Xiaolai, Segoe UI Emoji" font-size="20px" fill="#2f9e44" text-anchor="middle" style="white-space: pre;" direction="ltr" dominant-baseline="alphabetic">Ollama :11434/v1</text><text x="120.71991729736328" y="67.62" font-family="Excalifont, Xiaolai, Segoe UI Emoji" font-size="20px" fill="#2f9e44" text-anchor="middle" style="white-space: pre;" direction="ltr" dominant-baseline="alphabetic">or OpenAI api.openai.com</text></g><g mask="url(#mask-a1)" stroke-linecap="round"><g transform="translate(147.40657385659415 234.96799193126446) rotate(0 1.9040613986205273 39.5092740213758)"><path d="M0.5 0.5 C0.55 22.88, 1.71 49.12, 3.31 78.52 M0.5 0.5 C2.21 25.14, 3.17 47.43, 3.31 78.52" stroke="#1971c2" stroke-width="2" fill="none"></path></g><g transform="translate(147.40657385659415 234.96799193126446) rotate(0 1.9040613986205273 39.5092740213758)"><path d="M-5.55 55.14 C-3.61 60.92, -0.62 70.61, 3.31 78.52 M-5.55 55.14 C-2.08 63.14, 0.72 68.83, 3.31 78.52" stroke="#1971c2" stroke-width="2" fill="none"></path></g><g transform="translate(147.40657385659415 234.96799193126446) rotate(0 1.9040613986205273 39.5092740213758)"><path d="M11.55 54.91 C8.31 60.92, 6.12 70.68, 3.31 78.52 M11.55 54.91 C9.83 63.09, 7.42 68.85, 3.31 78.52" stroke="#1971c2" stroke-width="2" fill="none"></path></g></g><mask id="mask-a1"><rect x="0" y="0" fill="#fff" width="251.2146966538352" height="413.98653997401607"></rect><rect x="116.7606703504295" y="261.97726595264027" fill="#000" width="65.09992980957031" height="25" opacity="1"></rect></mask><g transform="translate(116.7606703504295 261.9772659526402) rotate(0 32.54996490478517 12.5)"><text x="32.549964904785156" y="17.619999999999997" font-family="Excalifont, Xiaolai, Segoe UI Emoji" font-size="20px" fill="#1971c2" text-anchor="middle" style="white-space: pre;" direction="ltr" dominant-baseline="alphabetic">binding</text></g><g mask="url(#mask-a2)" stroke-linecap="round"><g transform="translate(286.78522969323126 322.37233481632745) rotate(0 85.57198211208629 -38.55440952302787)"><path d="M0.5 -0.5 C47.95 -22.38, 99.93 -43.98, 170.64 -76.61 M0.5 -0.5 C54.41 -24.84, 106.46 -49.87, 170.64 -76.61" stroke="#1971c2" stroke-width="2" fill="none"></path></g><g transform="translate(286.78522969323126 322.37233481632745) rotate(0 85.57198211208629 -38.55440952302787)"><path d="M152.45 -59.46 C156.35 -64.79, 164.24 -69.27, 170.64 -76.61 M152.45 -59.46 C159.01 -64.14, 163.31 -70.64, 170.64 -76.61" stroke="#1971c2" stroke-width="2" fill="none"></path></g><g transform="translate(286.78522969323126 322.37233481632745) rotate(0 85.57198211208629 -38.55440952302787)"><path d="M145.69 -75.17 C151.69 -75.91, 161.54 -75.84, 170.64 -76.61 M145.69 -75.17 C154.47 -74.96, 160.9 -76.53, 170.64 -76.61" stroke="#1971c2" stroke-width="2" fill="none"></path></g></g><mask id="mask-a2"><rect x="0" y="0" fill="#fff" width="557.9291939174038" height="499.48115386238317"></rect><rect x="296.8572499522902" y="271.31792529329954" fill="#000" width="150.9999237060547" height="25" opacity="1"></rect></mask><g transform="translate(296.8572499522902 271.31792529329965) rotate(0 75.49996185302734 12.499999999999986)"><text x="75.49996185302734" y="17.619999999999997" font-family="Excalifont, Xiaolai, Segoe UI Emoji" font-size="20px" fill="#1971c2" text-anchor="middle" style="white-space: pre;" direction="ltr" dominant-baseline="alphabetic">HTTP + Bearer</text></g><g mask="url(#mask-a3)" stroke-linecap="round"><g transform="translate(609.491358146781 249.97726595264027) rotate(0 0 37)"><path d="M0 0.5 C-0.68 30.45, -0.19 57.92, 0 73.5 M0 0.5 C1.4 26.8, 0.28 54.83, 0 73.5" stroke="#9c36b5" stroke-width="2" fill="none"></path></g><g transform="translate(609.491358146781 249.97726595264027) rotate(0 0 37)"><path d="M-8.07 49.84 C-5.41 60.53, -1.76 68.69, 0 73.5 M-8.07 49.84 C-4.08 57.98, -2.24 67.92, 0 73.5" stroke="#9c36b5" stroke-width="2" fill="none"></path></g><g transform="translate(609.491358146781 249.97726595264027) rotate(0 0 37)"><path d="M9.03 50.19 C5 60.64, 1.96 68.66, 0 73.5 M9.03 50.19 C6.74 58.36, 2.32 68.17, 0 73.5" stroke="#9c36b5" stroke-width="2" fill="none"></path></g></g><mask id="mask-a3"><rect x="0" y="0" fill="#fff" width="709.491358146781" height="423.97726595264027"></rect><rect x="568.2013953782262" y="274.4772659526402" fill="#000" width="82.57992553710938" height="25" opacity="1"></rect></mask><g transform="translate(568.2013953782262 274.4772659526402) rotate(0 41.46085075689882 12.5)"><text x="41.28996276855469" y="17.619999999999997" font-family="Excalifont, Xiaolai, Segoe UI Emoji" font-size="20px" fill="#9c36b5" text-anchor="middle" style="white-space: pre;" direction="ltr" dominant-baseline="alphabetic">dispatch</text></g><g mask="url(#mask-a5)" stroke-linecap="round"><g transform="translate(584.14398446345 660.6175960311064) rotate(0 201.2068738651086 -145.31607556924516)"><path d="M0.5 -0.5 C96.63 -70.68, 193 -139.35, 401.91 -290.13" stroke="#2f9e44" stroke-width="2.5" fill="none" stroke-dasharray="8 10"></path></g><g transform="translate(584.14398446345 660.6175960311064) rotate(0 201.2068738651086 -145.31607556924516)"><path d="M387.85 -269.46 C391.33 -274.21, 395.94 -277.93, 401.91 -290.13" stroke="#2f9e44" stroke-width="2.5" fill="none"></path></g><g transform="translate(584.14398446345 660.6175960311064) rotate(0 201.2068738651086 -145.31607556924516)"><path d="M377.86 -283.33 C383.69 -284.84, 390.69 -285.25, 401.91 -290.13" stroke="#2f9e44" stroke-width="2.5" fill="none"></path></g></g><mask id="mask-a5"><rect x="0" y="0" fill="#fff" width="1086.5577321936673" height="1051.2497471695967"></rect><rect x="709.8209053256289" y="502.8015204618612" fill="#000" width="151.05990600585938" height="25" opacity="1"></rect></mask><g transform="translate(709.820905325629 502.8015204618612) rotate(0 75.52995300292969 12.500000000000028)"><text x="75.52995300292969" y="17.619999999999997" font-family="Excalifont, Xiaolai, Segoe UI Emoji" font-size="20px" fill="#2f9e44" text-anchor="middle" style="white-space: pre;" direction="ltr" dominant-baseline="alphabetic">outbound gRPC</text></g><g mask="url(#mask-a6)" stroke-linecap="round"><g transform="translate(587.491358146781 684.4772659526402) rotate(0 102 0)"><path d="M0.5 0 C57.45 1.12, 115.22 1.64, 203.5 0 M0.5 0 C79.4 -0.18, 156.19 0.03, 203.5 0" stroke="#2f9e44" stroke-width="2" fill="none"></path></g><g transform="translate(587.491358146781 684.4772659526402) rotate(0 102 0)"><path d="M180 8.54 C186.79 7.48, 194.57 5.67, 203.5 0 M180 8.54 C189.9 4.58, 197.39 1.52, 203.5 0" stroke="#2f9e44" stroke-width="2" fill="none"></path></g><g transform="translate(587.491358146781 684.4772659526402) rotate(0 102 0)"><path d="M180.01 -8.56 C186.91 -4.85, 194.69 -1.88, 203.5 0 M180.01 -8.56 C189.83 -5.94, 197.31 -2.41, 203.5 0" stroke="#2f9e44" stroke-width="2" fill="none"></path></g></g><mask id="mask-a6"><rect x="0" y="0" fill="#fff" width="891.491358146781" height="784.4772659526402"></rect><rect x="619.9613898850621" y="671.9772659526402" fill="#000" width="139.0599365234375" height="25" opacity="1"></rect></mask><g transform="translate(619.9613898850621 671.9772659526402) rotate(0 69.52996826171875 12.984528905580248)"><text x="69.52996826171875" y="17.619999999999997" font-family="Excalifont, Xiaolai, Segoe UI Emoji" font-size="20px" fill="#2f9e44" text-anchor="middle" style="white-space: pre;" direction="ltr" dominant-baseline="alphabetic">HTTP OpenAI</text></g><g mask="url(#mask-uInLYVE_0EMdpppWXKQq6)" stroke-linecap="round"><g transform="translate(793.6949740318522 363.2349777044495) rotate(0 71.37462867153204 -23.097017500142726)"><path d="M0 0 C44.4 -16.48, 85.48 -29.07, 142.75 -46.19 M0 0 C41.22 -12.68, 82.77 -26.23, 142.75 -46.19" stroke="#9c36b5" stroke-width="2" fill="none"></path></g><g transform="translate(793.6949740318522 363.2349777044495) rotate(0 71.37462867153204 -23.097017500142726)"><path d="M123.13 -30.69 C130.53 -37.25, 134.65 -40.63, 142.75 -46.19 M123.13 -30.69 C128.39 -35.51, 134.02 -40.1, 142.75 -46.19" stroke="#9c36b5" stroke-width="2" fill="none"></path></g><g transform="translate(793.6949740318522 363.2349777044495) rotate(0 71.37462867153204 -23.097017500142726)"><path d="M117.76 -46.93 C126.75 -48.64, 132.48 -47.15, 142.75 -46.19 M117.76 -46.93 C124.55 -46.96, 131.76 -46.82, 142.75 -46.19" stroke="#9c36b5" stroke-width="2" fill="none"></path></g></g><mask id="mask-uInLYVE_0EMdpppWXKQq6"><rect x="0" y="0" fill="#fff" width="1036.4442313749164" height="509.42901270473493"></rect><rect x="813.4096524470367" y="327.63796020430675" fill="#000" width="103.31990051269531" height="25" opacity="1"></rect></mask><g transform="translate(813.4096524470365 327.6379602043068) rotate(0 51.659950256347656 12.5)"><text x="51.659950256347656" y="17.619999999999997" font-family="Excalifont, Xiaolai, Segoe UI Emoji" font-size="20px" fill="#9c36b5" text-anchor="middle" style="white-space: pre;" direction="ltr" dominant-baseline="alphabetic">bridgework</text></g></svg>